<svg xmlns="http://www.w3.org/2000/svg" viewBox="0 0 960 220" role="img" aria-labelledby="title desc">
  <title id="title">Tiểu Viện Hữu Thư</title>
  <desc id="desc">Biểu trưng mái viện và sách mở, kèm tên đầy đủ Tiểu Viện Hữu Thư.</desc>
  <g transform="translate(35 28) scale(2.55)" fill="none" stroke="#F5F2EB" stroke-linecap="round" stroke-linejoin="round">
    <path d="M8 21h48M14 17 32 7l18 10" stroke-width="2.6"/>
    <path d="M14 21v33m9-33v33m18-33v33m9-33v33M8 54h48" stroke-width="2.6"/>
    <path d="M18 35c5-1.3 9.7-.2 14 3.1V51c-4.3-3.3-9-4.4-14-3.1V35Zm28 0c-5-1.3-9.7-.2-14 3.1V51c4.3-3.3 9-4.4 14-3.1V35Z" stroke-width="2.15"/>
  </g>
  <text x="232" y="132" fill="#F5F2EB" font-family="Lora, 'Iowan Old Style', Palatino, Georgia, serif" font-size="59" font-weight="500" letter-spacing="-1.2">Tiểu Viện Hữu Thư</text>
</svg>
